<svg width="21" height="16" viewBox="0 0 21 16" fill="none" xmlns="http://www.w3.org/2000/svg">
<mask id="path-1-inside-1_443_42" fill="white">
<path fill-rule="evenodd" clip-rule="evenodd" d="M5.60559 5.74475C5.252 5.94002 4.84546 6.05116 4.41296 6.05116C3.0485 6.05116 1.94238 4.94504 1.94238 3.58058C1.94238 2.21612 3.0485 1.11 4.41296 1.11C4.89713 1.11 5.34877 1.24928 5.73 1.48995C6.40574 0.585509 7.48482 0 8.70066 0C10.0206 0 11.1794 0.690111 11.8359 1.72921C12.2717 1.34388 12.8444 1.11 13.4719 1.11C14.4676 1.11 15.3258 1.69908 15.7168 2.54776C15.9698 2.41831 16.2563 2.34528 16.5599 2.34528C17.5833 2.34528 18.4129 3.17487 18.4129 4.19821C18.4129 5.22156 17.5833 6.05115 16.5599 6.05115C15.9936 6.05115 15.4867 5.79709 15.1468 5.39674C14.7065 5.80299 14.1182 6.05116 13.4719 6.05116C12.8911 6.05116 12.3572 5.8508 11.9354 5.51543C11.3011 6.64699 10.0902 7.41173 8.70066 7.41173C7.40721 7.41173 6.26853 6.74909 5.60559 5.74475Z"/>
</mask>
<path fill-rule="evenodd" clip-rule="evenodd" d="M5.60559 5.74475C5.252 5.94002 4.84546 6.05116 4.41296 6.05116C3.0485 6.05116 1.94238 4.94504 1.94238 3.58058C1.94238 2.21612 3.0485 1.11 4.41296 1.11C4.89713 1.11 5.34877 1.24928 5.73 1.48995C6.40574 0.585509 7.48482 0 8.70066 0C10.0206 0 11.1794 0.690111 11.8359 1.72921C12.2717 1.34388 12.8444 1.11 13.4719 1.11C14.4676 1.11 15.3258 1.69908 15.7168 2.54776C15.9698 2.41831 16.2563 2.34528 16.5599 2.34528C17.5833 2.34528 18.4129 3.17487 18.4129 4.19821C18.4129 5.22156 17.5833 6.05115 16.5599 6.05115C15.9936 6.05115 15.4867 5.79709 15.1468 5.39674C14.7065 5.80299 14.1182 6.05116 13.4719 6.05116C12.8911 6.05116 12.3572 5.8508 11.9354 5.51543C11.3011 6.64699 10.0902 7.41173 8.70066 7.41173C7.40721 7.41173 6.26853 6.74909 5.60559 5.74475Z" fill="#FFFF00"/>
<path d="M5.60559 5.74475L6.44017 5.19386L5.93109 4.42264L5.12216 4.86937L5.60559 5.74475ZM5.73 1.48995L5.19618 2.33554L5.97783 2.82899L6.5311 2.08848L5.73 1.48995ZM11.8359 1.72921L10.9905 2.26333L11.6181 3.25673L12.4984 2.47832L11.8359 1.72921ZM15.7168 2.54776L14.8086 2.96628L15.2448 3.91276L16.1725 3.43792L15.7168 2.54776ZM15.1468 5.39674L15.9091 4.74956L15.2346 3.95505L14.4687 4.6618L15.1468 5.39674ZM11.9354 5.51543L12.5578 4.73271L11.6379 4.00125L11.0632 5.02643L11.9354 5.51543ZM4.41296 7.05116C5.0188 7.05116 5.59119 6.89507 6.08902 6.62014L5.12216 4.86937C4.91282 4.98498 4.67212 5.05116 4.41296 5.05116V7.05116ZM0.942383 3.58058C0.942383 5.49733 2.49621 7.05116 4.41296 7.05116V5.05116C3.60078 5.05116 2.94238 4.39276 2.94238 3.58058H0.942383ZM4.41296 0.110002C2.49621 0.110002 0.942383 1.66383 0.942383 3.58058H2.94238C2.94238 2.7684 3.60078 2.11 4.41296 2.11V0.110002ZM6.26382 0.644348C5.72752 0.305783 5.09157 0.110002 4.41296 0.110002V2.11C4.70268 2.11 4.97002 2.19277 5.19618 2.33554L6.26382 0.644348ZM8.70066 -1C7.15608 -1 5.78529 -0.254809 4.9289 0.89141L6.5311 2.08848C7.02619 1.42583 7.81357 1 8.70066 1V-1ZM12.6813 1.19509C11.8493 -0.121812 10.3779 -1 8.70066 -1V1C9.66336 1 10.5095 1.50203 10.9905 2.26333L12.6813 1.19509ZM13.4719 0.110002C12.5912 0.110002 11.785 0.439346 11.1735 0.9801L12.4984 2.47832C12.7583 2.24841 13.0977 2.11 13.4719 2.11V0.110002ZM16.6251 2.12924C16.0767 0.939295 14.8722 0.110002 13.4719 0.110002V2.11C14.063 2.11 14.5748 2.45887 14.8086 2.96628L16.6251 2.12924ZM16.1725 3.43792C16.2876 3.37898 16.4184 3.34528 16.5599 3.34528V1.34528C16.0942 1.34528 15.6519 1.45763 15.2612 1.65759L16.1725 3.43792ZM16.5599 3.34528C17.031 3.34528 17.4129 3.72715 17.4129 4.19821H19.4129C19.4129 2.62258 18.1356 1.34528 16.5599 1.34528V3.34528ZM17.4129 4.19821C17.4129 4.66927 17.031 5.05115 16.5599 5.05115V7.05115C18.1356 7.05115 19.4129 5.77384 19.4129 4.19821H17.4129ZM16.5599 5.05115C16.2995 5.05115 16.0671 4.93566 15.9091 4.74956L14.3845 6.04393C14.9062 6.65852 15.6877 7.05115 16.5599 7.05115V5.05115ZM13.4719 7.05116C14.3792 7.05116 15.2072 6.70164 15.8249 6.13169L14.4687 4.6618C14.2058 4.90434 13.8571 5.05116 13.4719 5.05116V7.05116ZM11.3131 6.29816C11.9054 6.76914 12.6571 7.05116 13.4719 7.05116V5.05116C13.1252 5.05116 12.809 4.93245 12.5578 4.73271L11.3131 6.29816ZM8.70066 8.41173C10.4664 8.41173 12.0036 7.43875 12.8077 6.00444L11.0632 5.02643C10.5985 5.85523 9.71391 6.41173 8.70066 6.41173V8.41173ZM4.77101 6.29565C5.61117 7.56845 7.0572 8.41173 8.70066 8.41173V6.41173C7.75722 6.41173 6.9259 5.92972 6.44017 5.19386L4.77101 6.29565Z" fill="black" mask="url(#path-1-inside-1_443_42)"/>
<path d="M20.0215 5.49487C19.7612 10.6567 15.494 14.7623 10.2676 14.7625C5.04098 14.7625 0.772983 10.6568 0.512695 5.49487H20.0215Z" fill="#222222" stroke="black"/>
</svg>
